HIERARCHY
ROOT Hips
{
     OFFSET -0.50652 97.01800 -6.33344
     CHANNELS 6 Xposition Yposition Zposition Zrotation Xrotation Yrotation
     JOINT Spine
     {
          OFFSET 0.00000 11.89050 0.00000
          CHANNELS 3 Zrotation Xrotation Yrotation
          JOINT Spine1
          {
               OFFSET -0.00000 25.65740 0.12766
               CHANNELS 3 Zrotation Xrotation Yrotation
               JOINT HEad
               {
                    OFFSET 0.00000 8.73416 0.01134
                    CHANNELS 3 Zrotation Xrotation Yrotation
                    End Site
                    {
                         OFFSET -0.29000 12.77420 2.51395
                    }
               }
               JOINT LeftShoulder1
               {
                    OFFSET 8.99000 -0.36225 -0.22000
                    CHANNELS 3 Zrotation Xrotation Yrotation
                    JOINT LeftArm
                    {
                         OFFSET 10.28270 -0.00338 0.32212
                         CHANNELS 3 Zrotation Xrotation Yrotation
                         JOINT LeftForeArm
                         {
                              OFFSET 32.76690 0.09914 -1.42434
                              CHANNELS 3 Zrotation Xrotation Yrotation
                              JOINT LeftHand
                              {
                                   OFFSET 27.56430 0.08536 1.02216
                                   CHANNELS 3 Zrotation Xrotation Yrotation
                                   End Site
                                   {
                                        OFFSET 16.74430 -0.60000 1.50291
                                   }
                              }
                         }
                    }
               }
               JOINT RightShoulder
               {
                    OFFSET -8.99000 -0.36225 -0.22000
                    CHANNELS 3 Zrotation Xrotation Yrotation
                    JOINT RightArm
                    {
                         OFFSET -10.28270 -0.00338 0.32212
                         CHANNELS 3 Zrotation Xrotation Yrotation
                         JOINT RightForeArm
                         {
                              OFFSET -32.89710 0.09914 -1.42434
                              CHANNELS 3 Zrotation Xrotation Yrotation
                              JOINT RightHand
                              {
                                   OFFSET -27.49210 0.08536 1.02216
                                   CHANNELS 3 Zrotation Xrotation Yrotation
                                   End Site
                                   {
                                        OFFSET -16.63120 -0.60000 1.50291
                                   }
                              }
                         }
                    }
               }
          }
     }
     JOINT LeftUpLeg
     {
          OFFSET 8.94580 -8.66707 0.10165
          CHANNELS 3 Zrotation Xrotation Yrotation
          JOINT LeftLeg
          {
               OFFSET -0.00000 -44.42270 1.37270
               CHANNELS 3 Zrotation Xrotation Yrotation
               JOINT LeftFoot
               {
                    OFFSET -0.25355 -42.09240 -1.46059
                    CHANNELS 3 Zrotation Xrotation Yrotation
                    JOINT LeftToes
                    {
                         OFFSET -0.04000 -4.41509 8.49910
                         CHANNELS 3 Zrotation Xrotation Yrotation
                         End Site
                         {
                              OFFSET 0.08000 -0.04745 9.77979
                         }
                    }
               }
          }
     }
     JOINT RightUpLeg
     {
          OFFSET -8.94580 -8.66707 0.10165
          CHANNELS 3 Zrotation Xrotation Yrotation
          JOINT RightLeg
          {
               OFFSET 0.00000 -44.42270 1.37270
               CHANNELS 3 Zrotation Xrotation Yrotation
               JOINT RightFoot
               {
                    OFFSET 0.25355 -42.09240 -1.46059
                    CHANNELS 3 Zrotation Xrotation Yrotation
                    JOINT RightToes
                    {
                         OFFSET 0.04000 -4.41509 8.49910
                         CHANNELS 3 Zrotation Xrotation Yrotation
                         End Site
                         {
                              OFFSET -0.08000 -0.13745 9.77979
                         }
                    }
               }
          }
     }
}
MOTION
Frames: 7
Frame Time: 0.01667
-0.50652 97.01800 -6.33344 0.95454 -0.97632 -32.16780 -0.93664 3.23545 4.05979 -3.35685 6.49266 8.09074 -4.07479 6.61633 30.86800 -0.00000 -0.00000 0.00000 -94.07080 -38.06670 -95.37440 -18.84950 30.89060 -78.56050 5.55594 9.67997 -0.87718 18.65880 1.65876 5.45750 72.08270 -20.78500 75.66260 23.93760 44.12310 86.71400 -5.55712 9.68432 0.87760 13.78050 -19.39910 10.91250 -3.71116 21.84400 14.19320 -7.75855 5.69058 0.85301 0.88492 -20.00080 -6.24336 -12.87570 6.18161 -1.76629 2.80580 24.18570 -6.40701 7.89224 -14.26630 0.24793 -8.96438 -12.02100 -0.17671 
-0.71681 96.79380 -7.28919 0.91690 -1.03011 -33.10310 -0.55663 3.24104 4.07972 -3.20985 6.57506 8.14321 -5.05058 6.75698 31.93000 -0.00000 -0.00000 0.00000 -94.61180 -39.21860 -95.22390 -19.01250 30.99940 -78.89120 5.55594 9.67997 -0.87718 18.69410 1.66265 5.46489 70.91360 -19.99030 75.19340 23.41500 43.56280 87.06160 -5.55712 9.68432 0.87760 14.48280 -19.45510 10.98400 -3.68262 21.71780 15.24050 -8.83122 6.53868 1.03803 0.90221 -20.58830 -6.97598 -12.56510 6.06164 -1.97990 2.51444 23.70880 -5.51062 7.46327 -15.81160 0.31609 -9.06146 -11.77800 0.89714 
-0.90499 96.58560 -8.21840 0.84544 -1.09178 -33.99570 -0.15976 3.26955 4.08824 -3.04950 6.70502 8.17082 -6.03323 6.80912 32.93110 -0.00000 -0.00000 0.00000 -95.09060 -40.26050 -95.04880 -19.18300 31.11050 -79.29050 5.55594 9.67997 -0.87718 18.66850 1.66155 5.46775 69.66200 -19.04860 74.82280 22.77440 42.85790 87.42940 -5.55712 9.68432 0.87760 15.15140 -19.46740 11.04430 -3.56608 21.60910 15.70090 -10.15230 7.04507 1.24374 0.92866 -20.57780 -7.54137 -12.25380 5.89288 -2.15840 2.23989 23.38190 -4.60058 7.01121 -17.21220 0.36256 -9.09772 -11.46350 1.94203 
-1.07490 96.40140 -9.11066 0.75014 -1.17715 -34.81380 0.23774 3.32154 4.07961 -2.88752 6.88055 8.16617 -7.00036 6.77183 33.85080 -0.00000 -0.00000 0.00000 -95.52220 -41.13240 -94.89550 -19.36450 31.23460 -79.73010 5.55594 9.67997 -0.87718 18.58460 1.65572 5.46643 68.39420 -18.04580 74.56360 22.09010 42.06940 87.76320 -5.55712 9.68432 0.87760 15.71810 -19.44780 11.08560 -3.27021 21.55260 15.11430 -11.98310 6.96449 1.47200 0.98090 -19.67170 -7.83545 -11.93340 5.71564 -2.28342 1.97551 23.16500 -3.76873 6.42332 -18.39960 0.37358 -9.06930 -11.13470 2.77138 
-1.22808 96.24760 -9.95203 0.63562 -1.28614 -35.52530 0.63548 3.39065 4.04964 -2.72702 7.08858 8.12412 -7.93067 6.66863 34.68070 -0.00000 -0.00000 0.00000 -95.93360 -41.78360 -94.80060 -19.56470 31.38850 -80.18460 5.55594 9.67997 -0.87718 18.45410 1.64526 5.45769 67.19410 -17.08530 74.40320 21.44600 41.28410 88.01840 -5.55712 9.68432 0.87760 16.11960 -19.39870 11.07390 -2.71369 21.51100 13.12440 -14.38860 6.27444 1.69959 1.05233 -18.02900 -7.86352 -11.58460 5.54173 -2.36062 1.69520 23.05350 -3.06796 5.66850 -19.34330 0.34330 -8.97726 -10.83050 3.28387 
-1.36287 96.12800 -10.72870 0.50941 -1.40344 -36.10330 1.03356 3.46647 3.99613 -2.56317 7.30860 8.03963 -8.79961 6.54351 35.42530 -0.00000 -0.00000 0.00000 -96.35850 -42.18570 -94.78230 -19.79070 31.58760 -80.63460 5.55594 9.67997 -0.87718 18.28960 1.62983 5.43563 66.14780 -16.25410 74.31120 20.91020 40.59000 88.17620 -5.55712 9.68432 0.87760 16.30240 -19.32250 10.94330 -1.85443 21.40080 9.56557 -17.21380 5.08241 1.87666 1.11877 -16.04500 -7.67051 -11.19650 5.34635 -2.41885 1.37394 23.08230 -2.50090 4.83604 -20.07780 0.28354 -8.81339 -10.53870 3.49302 
-1.47598 96.04830 -11.42880 0.38455 -1.50859 -36.53540 1.42431 3.53843 3.91935 -2.38957 7.51863 7.90987 -9.57496 6.44403 36.09390 -0.00000 -0.00000 0.00000 -96.82300 -42.33900 -94.83450 -20.04330 31.83610 -81.06440 5.55594 9.67997 -0.87718 18.10530 1.60968 5.39646 65.32140 -15.60270 74.25170 20.52000 40.05280 88.24690 -5.55712 9.68432 0.87760 16.22810 -19.21670 10.60850 -0.71034 21.13380 4.52061 -20.14500 3.48906 1.93917 1.15677 -14.03660 -7.27486 -10.78020 5.09838 -2.49461 1.00759 23.27550 -2.02766 4.10669 -20.68710 0.22099 -8.55046 -10.18780 3.50388 
